# xmcd
#
# Track frame offsets:
#	150
#	11127
#	19490
#	31407
#	43466
#	54743
#	67601
#	80387
#	94514
#	104391
#	112881
#	124528
#	137599
#	150890
#	160979
#	176875
#	189977
#	202135
#
# Disc length: 2876 seconds
#
# Revision: 1
# Processed by: cddbd v1.5.1PL0 Copyright (c) Steve Scherf et al.
# Submitted via: audiograbber 1.83.01
#
DISCID=eb0b3a12
DTITLE=Philomena Begley and Ray Lynam - My elusive Dreams
DYEAR=1900
DGENRE=Country
TTITLE0=You and me, her and him
TTITLE1=All these little Things
TTITLE2=We've run out of tomorrow
TTITLE3=We go together
TTITLE4=Seeing Eye to Eye
TTITLE5=That's when my Baby sings his Song
TTITLE6=Mr and Mrs used to be
TTITLE7=Daddy was an old Time Preacher man
TTITLE8=Anything's better than nothing
TTITLE9=We love to sing about Jesus
TTITLE10=Silver Sandals
TTITLE11=You're the one i can't live without
TTITLE12=Papa's Wagon
TTITLE13=You never were mine
TTITLE14=My elusive Dreams
TTITLE15=What's your Mama's name?
TTITLE16=Jeannie's afraid of the dark
TTITLE17=I can't believe you stopped loving me
EXTD=
EXTT0=
EXTT1=
EXTT2=
EXTT3=
EXTT4=
EXTT5=
EXTT6=
EXTT7=
EXTT8=
EXTT9=
EXTT10=
EXTT11=
EXTT12=
EXTT13=
EXTT14=
EXTT15=
EXTT16=
EXTT17=
PLAYORDER=
